<?xml version="1.0" standalone="no"?>
<!DOCTYPE svg PUBLIC "-//W3C//DTD SVG 20010904//EN"
 "http://www.w3.org/TR/2001/REC-SVG-20010904/DTD/svg10.dtd">
<svg version="1.0" xmlns="http://www.w3.org/2000/svg"
 width="1024.000000pt" height="1024.000000pt" viewBox="0 0 1024.000000 1024.000000"
 preserveAspectRatio="xMidYMid meet">
<metadata>
Created by potrace 1.11, written by Peter Selinger 2001-2013
</metadata>
<g transform="translate(0.000000,1024.000000) scale(0.100000,-0.100000)"
fill="#000000" stroke="none">
<path d="M4857 10234 c-1 -1 -49 -5 -107 -8 -129 -9 -186 -14 -225 -20 -16 -3
-52 -8 -80 -11 -27 -3 -59 -8 -71 -10 -11 -3 -40 -7 -65 -10 -24 -3 -55 -8
-69 -11 -14 -3 -36 -7 -50 -9 -21 -3 -68 -13 -195 -40 -11 -3 -29 -7 -40 -9
-11 -2 -40 -9 -65 -16 -25 -7 -53 -14 -62 -16 -10 -2 -26 -6 -37 -8 -48 -11
-323 -97 -361 -113 -8 -3 -19 -7 -25 -9 -30 -7 -196 -71 -300 -116 -261 -112
-732 -368 -718 -391 3 -6 1 -7 -5 -3 -12 7 -152 -81 -152 -95 0 -5 -4 -8 -9
-7 -4 2 -34 -15 -65 -37 -64 -44 -344 -264 -374 -292 -10 -10 -53 -48 -94 -85
-138 -123 -200 -187 -192 -199 4 -7 3 -9 -4 -5 -11 7 -40 -20 -159 -150 -90
-98 -117 -130 -151 -174 -15 -19 -29 -37 -32 -40 -3 -3 -24 -27 -45 -55 -22
-27 -42 -52 -45 -55 -17 -15 -49 -68 -45 -74 3 -3 2 -4 -2 -1 -3 3 -17 -10
-29 -28 -13 -17 -32 -43 -41 -55 -10 -13 -27 -39 -38 -57 -11 -18 -40 -61 -65
-96 -56 -80 -71 -109 -64 -120 3 -5 0 -8 -6 -7 -7 2 -20 -11 -29 -29 -10 -17
-25 -43 -34 -56 -26 -40 -42 -68 -163 -297 -10 -19 -19 -37 -19 -40 -1 -3 -22
-49 -48 -102 -157 -327 -316 -810 -372 -1127 -3 -19 -8 -37 -10 -40 -2 -4 -6
-28 -9 -55 -3 -26 -8 -51 -10 -54 -2 -4 -7 -29 -10 -57 -4 -27 -9 -63 -12 -80
-5 -30 -8 -56 -19 -155 -3 -30 -8 -66 -10 -79 -26 -153 -27 -780 0 -1019 9
-81 16 -139 21 -172 9 -69 26 -176 31 -205 3 -16 7 -39 8 -50 8 -55 61 -296
72 -325 3 -8 8 -24 10 -35 2 -11 9 -38 15 -60 7 -22 13 -44 14 -50 0 -5 3 -17
6 -25 3 -8 25 -76 48 -150 24 -74 51 -155 61 -180 10 -25 30 -76 45 -115 14
-38 34 -88 44 -110 10 -22 32 -72 49 -112 50 -114 215 -439 231 -453 3 -3 12
-18 21 -35 46 -94 362 -555 381 -555 4 0 8 -6 8 -12 0 -7 20 -35 45 -63 25
-27 45 -52 45 -55 0 -3 25 -31 55 -64 30 -32 55 -60 55 -62 0 -12 258 -273
366 -372 38 -34 83 -75 99 -90 17 -15 57 -49 90 -77 33 -27 62 -52 65 -55 36
-39 471 -343 565 -394 17 -9 46 -26 65 -38 68 -42 322 -179 340 -183 3 -1 46
-21 95 -44 50 -24 95 -44 100 -45 6 -1 36 -14 68 -29 32 -15 62 -27 67 -27 6
0 18 -4 28 -10 24 -14 170 -70 190 -73 9 -1 22 -5 27 -8 9 -6 90 -32 220 -72
88 -27 325 -86 410 -102 17 -3 53 -10 80 -15 72 -14 224 -39 276 -45 24 -2 58
-7 74 -9 31 -5 137 -15 215 -21 25 -2 123 -7 217 -10 l173 -6 -1 5120 0 5120
-130 -2 c-72 -1 -131 -2 -132 -3z"/>
<path d="M8029 7156 c-2 -2 -33 -6 -69 -10 -101 -9 -288 -51 -404 -90 -587
-196 -1048 -641 -1269 -1226 -51 -133 -99 -332 -114 -468 -19 -169 -7 -504 23
-632 3 -14 8 -36 10 -50 36 -198 156 -481 289 -681 287 -432 708 -731 1210
-858 165 -42 302 -58 490 -59 175 0 266 9 435 43 292 59 647 231 872 422 70
60 229 221 283 288 237 290 396 663 442 1037 10 81 10 403 0 488 -36 308 -152
624 -323 882 -333 502 -849 822 -1454 903 -83 11 -411 20 -421 11z"/>
</g>
</svg>
