<svg width="736" height="117" viewBox="0 0 736 117" fill="none" xmlns="http://www.w3.org/2000/svg">
<path fill-rule="evenodd" clip-rule="evenodd" d="M58.5 0H43.875V14.2866L29.25 14.2866L29.25 29.25H14.625L14.625 44.0802H0V58.7052V73.3302H14.625L14.625 87.75H29.25L29.25 87.8076L29.25 102.433H44.287V117H58.9119H58.912H73.5369V102.433H87.75V87.8076V87.75H102.375V73.125H117V58.5V43.875H102.375V29.25H87.75V14.2866L73.125 14.2866V0H58.5Z" fill="white"/>
<rect opacity="0.63" x="29.662" y="102.375" width="14.625" height="14.625" fill="white"/>
<rect opacity="0.86" x="14.625" y="87.75" width="14.625" height="14.625" fill="white"/>
<rect opacity="0.86" x="14.625" y="14.625" width="14.625" height="14.625" fill="white"/>
<rect opacity="0.86" x="87.75" y="87.75" width="14.625" height="14.625" fill="white"/>
<rect opacity="0.63" x="73.537" y="102.375" width="14.625" height="14.625" fill="white"/>
<rect opacity="0.63" x="29.25" width="14.625" height="14.625" fill="white"/>
<rect opacity="0.63" x="73.125" width="14.625" height="14.625" fill="white"/>
<rect opacity="0.63" x="14.625" y="29.4553" width="14.625" height="14.625" transform="rotate(90 14.625 29.4553)" fill="white"/>
<rect opacity="0.63" x="14.625" y="73.125" width="14.625" height="14.625" transform="rotate(90 14.625 73.125)" fill="white"/>
<rect opacity="0.63" x="117" y="29.25" width="14.625" height="14.625" transform="rotate(90 117 29.25)" fill="white"/>
<rect opacity="0.63" x="117" y="73.125" width="14.625" height="14.625" transform="rotate(90 117 73.125)" fill="white"/>
<rect opacity="0.86" x="87.75" y="14.625" width="14.625" height="14.625" fill="white"/>
<path d="M177.923 83.3625C173.163 83.3625 168.955 82.385 165.3 80.43C161.645 78.475 158.783 75.7267 156.715 72.185C154.647 68.6433 153.613 64.4925 153.613 59.7325C153.613 55.0008 154.647 50.8925 156.715 47.4075C158.783 43.9225 161.645 41.245 165.3 39.375C168.955 37.4767 173.163 36.5275 177.923 36.5275C181.493 36.5275 184.652 37.0517 187.4 38.1C190.148 39.1483 192.458 40.5508 194.328 42.3075C196.226 44.0358 197.671 45.9483 198.663 48.045C199.654 50.1133 200.15 52.1817 200.15 54.25C200.15 54.3067 200.15 54.3633 200.15 54.42C200.15 54.4767 200.15 54.5333 200.15 54.59H189.058C189.058 54.4483 189.043 54.2925 189.015 54.1225C188.987 53.9525 188.958 53.7825 188.93 53.6125C188.703 52.1675 188.123 50.8642 187.188 49.7025C186.253 48.5125 185.006 47.5633 183.448 46.855C181.889 46.1467 180.005 45.7925 177.795 45.7925C175.443 45.7925 173.29 46.3167 171.335 47.365C169.408 48.385 167.864 49.9292 166.703 51.9975C165.569 54.0658 165.003 56.6442 165.003 59.7325C165.003 62.7925 165.569 65.3992 166.703 67.5525C167.836 69.6775 169.366 71.3067 171.293 72.44C173.248 73.545 175.415 74.0975 177.795 74.0975C180.317 74.0975 182.371 73.715 183.958 72.95C185.573 72.1567 186.791 71.1083 187.613 69.805C188.434 68.4733 188.902 67.0283 189.015 65.47H200.15C200.15 67.5667 199.668 69.6775 198.705 71.8025C197.742 73.8992 196.325 75.8258 194.455 77.5825C192.585 79.3392 190.262 80.7417 187.485 81.79C184.737 82.8383 181.549 83.3625 177.923 83.3625Z" fill="black"/>
<path d="M243.909 82.4275V66.15C243.909 65.47 243.909 64.62 243.909 63.6C243.909 62.58 243.909 61.5458 243.909 60.4975C243.909 59.4492 243.909 58.585 243.909 57.905C243.909 54.165 243.172 51.3033 241.699 49.32C240.254 47.3083 237.775 46.3025 234.262 46.3025C231.91 46.3025 229.898 46.77 228.227 47.705C226.583 48.6117 225.322 49.8867 224.444 51.53C223.566 53.1733 223.127 55.0717 223.127 57.225L219.047 55.0575C219.047 51.4592 219.854 48.2717 221.469 45.495C223.112 42.69 225.379 40.4942 228.269 38.9075C231.159 37.3208 234.474 36.5275 238.214 36.5275C243.682 36.5275 247.862 38.1567 250.752 41.415C253.642 44.645 255.087 49.15 255.087 54.93C255.087 56.4033 255.087 58.16 255.087 60.2C255.087 62.2117 255.087 64.4783 255.087 67V82.4275H243.909ZM211.949 82.4275V16H223.127V82.4275H211.949Z" fill="black"/>
<path d="M290.639 83.32C285.879 83.32 281.686 82.3283 278.059 80.345C274.433 78.3333 271.585 75.5567 269.517 72.015C267.477 68.4733 266.457 64.4217 266.457 59.86C266.457 55.27 267.477 51.2325 269.517 47.7475C271.585 44.2342 274.433 41.4858 278.059 39.5025C281.686 37.5192 285.879 36.5275 290.639 36.5275C295.399 36.5275 299.593 37.5192 303.219 39.5025C306.846 41.4858 309.679 44.2342 311.719 47.7475C313.788 51.2325 314.822 55.27 314.822 59.86C314.822 64.4217 313.788 68.4733 311.719 72.015C309.679 75.5567 306.846 78.3333 303.219 80.345C299.593 82.3283 295.399 83.32 290.639 83.32ZM290.639 74.1825C293.218 74.1825 295.47 73.5875 297.397 72.3975C299.323 71.2075 300.825 69.55 301.902 67.425C302.978 65.2717 303.517 62.75 303.517 59.86C303.517 56.97 302.978 54.4767 301.902 52.38C300.825 50.255 299.323 48.6117 297.397 47.45C295.47 46.2883 293.218 45.7075 290.639 45.7075C288.089 45.7075 285.837 46.2883 283.882 47.45C281.955 48.6117 280.453 50.255 279.377 52.38C278.3 54.4767 277.762 56.97 277.762 59.86C277.762 62.75 278.3 65.2717 279.377 67.425C280.453 69.55 281.955 71.2075 283.882 72.3975C285.837 73.5875 288.089 74.1825 290.639 74.1825Z" fill="black"/>
<path d="M362.003 82.4275L351.506 37.2925H360.048L370.291 78.9H368.463L375.008 37.2925H386.611L377.346 82.4275H362.003ZM330.893 82.4275L321.586 37.2925H333.188L339.776 78.9H337.948L348.106 37.2925H356.648L346.321 82.4275H330.893Z" fill="black"/>
<path d="M414.65 83.3625C410.939 83.3625 407.496 82.47 404.323 80.685C401.178 78.8717 398.656 76.2083 396.758 72.695C394.859 69.1817 393.91 64.8608 393.91 59.7325C393.91 54.7458 394.874 50.5242 396.8 47.0675C398.755 43.6108 401.305 40.99 404.45 39.205C407.624 37.42 411.024 36.5275 414.65 36.5275C418.192 36.5275 421.464 37.4058 424.468 39.1625C427.471 40.8908 429.879 43.2992 431.693 46.3875C433.506 49.4758 434.413 53.0175 434.413 57.0125C434.413 57.1258 434.413 57.2392 434.413 57.3525C434.413 57.4658 434.413 57.5792 434.413 57.6925L428.888 57.82C428.888 57.735 428.888 57.65 428.888 57.565C428.888 57.4517 428.888 57.3525 428.888 57.2675C428.888 55.0292 428.321 53.0742 427.188 51.4025C426.083 49.7308 424.638 48.4275 422.853 47.4925C421.096 46.5292 419.226 46.0475 417.243 46.0475C413.984 46.0475 411.208 47.1525 408.913 49.3625C406.618 51.5442 405.47 55.0008 405.47 59.7325C405.47 64.4358 406.618 67.9067 408.913 70.145C411.208 72.3833 413.984 73.5025 417.243 73.5025C419.311 73.5025 421.224 73.0067 422.98 72.015C424.737 71.0233 426.154 69.6633 427.23 67.935C428.335 66.1783 428.888 64.1667 428.888 61.9L434.413 62.155C434.413 66.1217 433.52 69.72 431.735 72.95C429.979 76.1517 427.613 78.6875 424.638 80.5575C421.663 82.4275 418.334 83.3625 414.65 83.3625ZM428.888 82.4275V16H440.108V82.4275H428.888Z" fill="black"/>
<path d="M485.618 82.4275V66.15C485.618 65.47 485.618 64.62 485.618 63.6C485.618 62.58 485.618 61.5458 485.618 60.4975C485.618 59.4492 485.618 58.585 485.618 57.905C485.618 54.165 484.881 51.3033 483.408 49.32C481.963 47.3083 479.484 46.3025 475.97 46.3025C473.619 46.3025 471.607 46.77 469.935 47.705C468.292 48.6117 467.031 49.8867 466.153 51.53C465.275 53.1733 464.835 55.0717 464.835 57.225L460.755 55.0575C460.755 51.4592 461.563 48.2717 463.178 45.495C464.821 42.69 467.088 40.4942 469.978 38.9075C472.868 37.3208 476.183 36.5275 479.923 36.5275C485.391 36.5275 489.57 38.1567 492.46 41.415C495.35 44.645 496.795 49.15 496.795 54.93C496.795 56.4033 496.795 58.16 496.795 60.2C496.795 62.2117 496.795 64.4783 496.795 67V82.4275H485.618ZM453.658 82.4275V16H464.835V82.4275H453.658Z" fill="black"/>
<path d="M525.633 83.3625C522.261 83.3625 519.3 82.8383 516.75 81.79C514.2 80.7133 512.203 79.1692 510.758 77.1575C509.313 75.1458 508.59 72.7233 508.59 69.89C508.59 66.8017 509.426 64.2658 511.098 62.2825C512.798 60.2708 515.079 58.7267 517.94 57.65C520.802 56.545 523.975 55.8367 527.46 55.525C532.617 55.015 536.215 54.5333 538.255 54.08C540.324 53.5983 541.358 52.8333 541.358 51.785C541.358 51.7567 541.358 51.7425 541.358 51.7425C541.358 51.7142 541.358 51.7 541.358 51.7C541.358 49.7167 540.465 48.1867 538.68 47.11C536.895 46.0333 534.374 45.495 531.115 45.495C527.687 45.495 525.052 46.1042 523.21 47.3225C521.397 48.5125 520.49 50.4108 520.49 53.0175H509.44C509.44 49.4758 510.375 46.4867 512.245 44.05C514.144 41.585 516.736 39.715 520.023 38.44C523.31 37.165 527.035 36.5275 531.2 36.5275C535.082 36.5275 538.638 37.1083 541.868 38.27C545.098 39.4317 547.69 41.1883 549.645 43.54C551.6 45.8917 552.578 48.8242 552.578 52.3375C552.578 52.9325 552.578 53.5275 552.578 54.1225C552.578 54.7175 552.578 55.3125 552.578 55.9075V72.9075C552.578 73.9842 552.606 75.0467 552.663 76.095C552.748 77.115 552.904 78.0358 553.13 78.8575C553.414 79.7642 553.754 80.5292 554.15 81.1525C554.547 81.7758 554.859 82.2008 555.085 82.4275H544.035C543.837 82.2292 543.554 81.8467 543.185 81.28C542.845 80.685 542.534 80.005 542.25 79.24C541.967 78.39 541.755 77.4833 541.613 76.52C541.471 75.5283 541.4 74.4375 541.4 73.2475L543.61 74.7775C542.76 76.5058 541.457 78.0217 539.7 79.325C537.972 80.6 535.904 81.5917 533.495 82.3C531.087 83.0083 528.466 83.3625 525.633 83.3625ZM528.353 74.565C530.676 74.565 532.83 74.1683 534.813 73.375C536.796 72.5817 538.397 71.3633 539.615 69.72C540.834 68.0483 541.443 65.9092 541.443 63.3025V57.2675L544.163 60.3275C542.35 61.0075 540.168 61.5742 537.618 62.0275C535.068 62.4525 532.49 62.7925 529.883 63.0475C526.54 63.3592 524.018 63.94 522.318 64.79C520.646 65.64 519.81 67.0283 519.81 68.955C519.81 70.825 520.519 72.2275 521.935 73.1625C523.352 74.0975 525.491 74.565 528.353 74.565Z" fill="black"/>
<path d="M565.506 82.4275V37.2925H576.683V52.295L574.091 50.85C574.374 48.895 574.898 47.0533 575.663 45.325C576.428 43.5683 577.448 42.0383 578.723 40.735C579.998 39.4033 581.543 38.3692 583.356 37.6325C585.169 36.8958 587.238 36.5275 589.561 36.5275C591.403 36.5275 592.848 36.6692 593.896 36.9525C594.973 37.2075 595.638 37.42 595.893 37.59L593.853 47.8325C593.57 47.6342 592.989 47.3933 592.111 47.11C591.261 46.7983 590.113 46.6425 588.668 46.6425C586.373 46.6425 584.447 47.0392 582.888 47.8325C581.358 48.5975 580.14 49.6458 579.233 50.9775C578.327 52.2808 577.675 53.7258 577.278 55.3125C576.882 56.8708 576.683 58.4292 576.683 59.9875V82.4275H565.506Z" fill="black"/>
<path d="M608.425 101.808C607.093 101.808 605.903 101.737 604.855 101.595C603.807 101.482 603.155 101.368 602.9 101.255V92.5425C603.268 92.7125 603.892 92.84 604.77 92.925C605.677 93.0383 606.612 93.095 607.575 93.095C609.133 93.095 610.479 92.7833 611.612 92.16C612.774 91.5367 613.766 90.6725 614.587 89.5675C615.409 88.4908 616.061 87.23 616.542 85.785L617.52 82.9375L601.965 37.2925H613.652L624.32 74.9475H622.96L633.372 37.2925H644.847L629.037 85.19C627.932 88.505 626.587 91.4092 625 93.9025C623.442 96.3958 621.359 98.3367 618.752 99.725C616.146 101.113 612.703 101.808 608.425 101.808Z" fill="black"/>
<path d="M678.734 58.8759C676.498 58.8759 674.528 58.4144 672.825 57.4914C671.122 56.5684 669.79 55.3009 668.828 53.6889C667.879 52.0639 667.404 50.1919 667.404 48.0729C667.404 45.9669 667.879 44.1079 668.828 42.4959C669.79 40.8709 671.122 39.6099 672.825 38.7129C674.528 37.8029 676.498 37.3479 678.734 37.3479C680.97 37.3479 682.939 37.8029 684.642 38.7129C686.345 39.6099 687.671 40.8709 688.62 42.4959C689.582 44.1079 690.063 45.9669 690.063 48.0729C690.063 50.1919 689.582 52.0639 688.62 53.6889C687.671 55.3009 686.345 56.5684 684.642 57.4914C682.939 58.4144 680.97 58.8759 678.734 58.8759ZM678.734 54.0789C679.787 54.0789 680.703 53.8319 681.483 53.3379C682.263 52.8439 682.868 52.1484 683.297 51.2514C683.726 50.3414 683.94 49.2819 683.94 48.0729C683.94 46.8639 683.726 45.8174 683.297 44.9334C682.868 44.0364 682.263 43.3474 681.483 42.8664C680.703 42.3854 679.787 42.1449 678.734 42.1449C677.694 42.1449 676.777 42.3854 675.984 42.8664C675.204 43.3474 674.6 44.0364 674.171 44.9334C673.742 45.8174 673.527 46.8639 673.527 48.0729C673.527 49.2819 673.742 50.3414 674.171 51.2514C674.6 52.1484 675.204 52.8439 675.984 53.3379C676.777 53.8319 677.694 54.0789 678.734 54.0789Z" fill="black"/>
<path d="M695.009 58.4274V37.7184H701.074V44.8554L699.826 44.0754C699.969 43.1004 700.229 42.2034 700.606 41.3844C700.983 40.5654 701.47 39.8569 702.068 39.2589C702.666 38.6479 703.375 38.1734 704.194 37.8354C705.026 37.4974 705.975 37.3284 707.041 37.3284C707.873 37.3284 708.523 37.3934 708.991 37.5234C709.472 37.6404 709.771 37.7314 709.888 37.7964L708.893 43.2174C708.776 43.1524 708.516 43.0484 708.113 42.9054C707.71 42.7624 707.19 42.6909 706.553 42.6909C705.513 42.6909 704.642 42.8664 703.94 43.2174C703.238 43.5684 702.673 44.0364 702.244 44.6214C701.828 45.1934 701.529 45.8304 701.347 46.5324C701.165 47.2344 701.074 47.9429 701.074 48.6579V58.4274H695.009Z" fill="black"/>
<path d="M728.183 55.9704C729.457 56.1004 730.568 56.3474 731.517 56.7114C732.479 57.0624 733.227 57.5889 733.76 58.2909C734.293 58.9799 734.559 59.9029 734.559 61.0599C734.559 62.3989 734.117 63.5364 733.233 64.4724C732.362 65.4214 731.082 66.1429 729.392 66.6369C727.702 67.1309 725.654 67.3779 723.249 67.3779C719.7 67.3779 716.951 66.8644 715.001 65.8374C713.064 64.8234 712.095 63.4649 712.095 61.7619C712.095 61.2809 712.147 60.8454 712.251 60.4554C712.368 60.0784 712.511 59.7534 712.68 59.4804L718.179 60.2799C718.114 60.3709 718.043 60.5074 717.965 60.6894C717.9 60.8844 717.867 61.1249 717.867 61.4109C717.867 62.0999 718.381 62.6134 719.408 62.9514C720.448 63.2894 721.787 63.4584 723.425 63.4584C724.582 63.4584 725.57 63.3739 726.389 63.2049C727.221 63.0489 727.851 62.8149 728.28 62.5029C728.722 62.1909 728.943 61.8334 728.943 61.4304C728.943 60.8454 728.657 60.4619 728.085 60.2799C727.526 60.0979 726.876 59.9679 726.135 59.8899L718.296 59.0904C716.853 58.9474 715.657 58.5314 714.708 57.8424C713.759 57.1534 713.285 56.2239 713.285 55.0539C713.285 54.3259 713.486 53.6629 713.889 53.0649C714.292 52.4539 714.754 51.9534 715.274 51.5634C715.794 51.1604 716.229 50.9069 716.58 50.8029L719.661 52.3629C719.414 52.4019 719.122 52.5579 718.784 52.8309C718.459 53.1039 718.296 53.4224 718.296 53.7864C718.296 54.1504 718.478 54.4624 718.842 54.7224C719.219 54.9824 719.902 55.1579 720.89 55.2489L728.183 55.9704ZM730.23 37.7184H735.554L733.389 45.6744C732.986 47.1824 732.388 48.5279 731.595 49.7109C730.802 50.8809 729.743 51.8039 728.417 52.4799C727.104 53.1559 725.446 53.4939 723.444 53.4939C721.338 53.4939 719.512 53.1689 717.965 52.5189C716.431 51.8689 715.248 50.9524 714.416 49.7694C713.584 48.5734 713.168 47.1629 713.168 45.5379C713.168 43.9129 713.59 42.4829 714.435 41.2479C715.293 40.0129 716.457 39.0509 717.926 38.3619C719.408 37.6729 721.085 37.3284 722.957 37.3284C724.374 37.3284 725.667 37.5624 726.837 38.0304C728.02 38.4854 728.969 39.0899 729.684 39.8439C730.412 40.5979 730.789 41.4299 730.815 42.3399L729.704 42.6324L730.23 37.7184ZM723.405 49.0674C724.263 49.0674 725.017 48.9309 725.667 48.6579C726.317 48.3719 726.824 47.9624 727.188 47.4294C727.552 46.8834 727.734 46.2269 727.734 45.4599C727.734 44.7059 727.552 44.0624 727.188 43.5294C726.824 42.9964 726.317 42.5869 725.667 42.3009C725.017 42.0149 724.263 41.8719 723.405 41.8719C722.586 41.8719 721.845 42.0214 721.182 42.3204C720.532 42.6064 720.019 43.0224 719.642 43.5684C719.265 44.1014 719.076 44.7514 719.076 45.5184C719.076 46.2724 719.258 46.9159 719.622 47.4489C719.986 47.9689 720.493 48.3719 721.143 48.6579C721.793 48.9309 722.547 49.0674 723.405 49.0674Z" fill="black"/>
<path fill-rule="evenodd" clip-rule="evenodd" d="M732 84.4272H666V76.4272H732V84.4272Z" fill="black"/>
</svg>
